<svg xmlns="http://www.w3.org/2000/svg" width="810" viewBox="0 0 810 810" height="810" version="1.0"><defs><clipPath id="a"><path d="M 387 267 L 524.925781 267 L 524.925781 417 L 387 417 Z M 387 267"/></clipPath><clipPath id="b"><path d="M 284.925781 340 L 438 340 L 438 542.984375 L 284.925781 542.984375 Z M 284.925781 340"/></clipPath></defs><path fill="#87CEEB" d="M 405 182.25 C 281.980469 182.25 182.25 281.980469 182.25 405 C 182.25 528.019531 281.980469 627.75 405 627.75 C 528.019531 627.75 627.75 528.019531 627.75 405 C 627.75 281.980469 528.019531 182.25 405 182.25"/><g clip-path="url(#a)"><path fill="#FFF" d="M 387.675781 352.621094 C 398.671875 352.5625 409.871094 348.625 421.898438 340.578125 C 423.753906 339.332031 425.921875 338.671875 428.15625 338.671875 C 431.433594 338.671875 434.507812 340.089844 436.628906 342.519531 L 502.261719 302.351562 L 504.410156 305.871094 L 438.71875 346.078125 C 440.445312 350.824219 438.804688 356.324219 434.429688 359.265625 C 419.015625 369.644531 402.855469 375.132812 387.6875 375.132812 L 387.675781 375.132812 L 387.675781 416.6875 L 524.882812 416.6875 L 524.882812 267.03125 L 387.675781 267.03125 Z M 387.675781 352.621094"/></g><g clip-path="url(#b)"><path fill="#FFF" d="M 387.558594 372.878906 C 387.597656 372.878906 387.636719 372.878906 387.675781 372.878906 C 387.679688 372.878906 387.683594 372.878906 387.6875 372.878906 C 400.390625 372.878906 416.0625 368.921875 433.175781 357.394531 C 436.554688 355.128906 437.898438 350.972656 436.761719 347.277344 C 436.507812 346.457031 436.136719 345.65625 435.632812 344.90625 C 435.34375 344.472656 435.019531 344.085938 434.671875 343.71875 C 431.707031 340.597656 426.84375 339.964844 423.148438 342.449219 C 408.566406 352.207031 396.757812 354.824219 387.675781 354.875 C 387.636719 354.875 387.597656 354.875 387.558594 354.875 C 380.367188 354.875 374.78125 353.179688 371.023438 351.542969 C 369.152344 350.722656 367.746094 349.921875 366.871094 349.367188 C 366.429688 349.089844 366.125 348.878906 365.960938 348.757812 C 365.898438 348.714844 365.859375 348.683594 365.835938 348.667969 C 365.820312 348.65625 365.816406 348.652344 365.816406 348.652344 C 364.824219 347.867188 363.71875 347.328125 362.566406 347.015625 C 361.707031 346.730469 360.789062 346.570312 359.828125 346.570312 L 316.375 346.570312 C 315.753906 346.570312 315.144531 346.640625 314.558594 346.765625 C 310.652344 347.03125 307.03125 348.25 303.816406 349.972656 C 298.339844 352.9375 293.859375 357.351562 290.507812 362.542969 C 287.191406 367.742188 284.953125 373.820312 284.925781 380.425781 C 284.921875 384.148438 285.699219 388.046875 287.503906 391.679688 C 290.191406 397.175781 295.175781 401.71875 301.582031 404.515625 C 302.804688 405.058594 304.101562 405.53125 305.433594 405.96875 C 306.167969 406.207031 306.917969 406.433594 307.6875 406.644531 C 307.890625 406.699219 308.097656 406.753906 308.304688 406.804688 C 311.546875 407.644531 315.078125 408.21875 318.949219 408.511719 C 321.050781 408.671875 323.246094 408.757812 325.550781 408.761719 C 327.871094 408.757812 330.296875 408.679688 332.839844 408.515625 C 333.664062 408.460938 334.449219 408.289062 335.191406 408.03125 C 338.929688 406.738281 341.5 403.082031 341.234375 398.945312 C 340.910156 393.984375 336.628906 390.226562 331.667969 390.550781 C 329.488281 390.691406 327.449219 390.757812 325.550781 390.757812 C 324.222656 390.761719 322.964844 390.726562 321.777344 390.667969 C 314.941406 390.308594 310.40625 388.941406 307.6875 387.484375 C 307.109375 387.175781 306.605469 386.859375 306.1875 386.550781 C 305.90625 386.347656 305.664062 386.148438 305.4375 385.953125 C 304.53125 385.167969 304.003906 384.429688 303.625 383.6875 C 303.171875 382.757812 302.929688 381.730469 302.921875 380.425781 C 302.847656 377.40625 304.671875 372.894531 307.65625 369.625 C 307.667969 369.613281 307.679688 369.601562 307.691406 369.59375 L 307.691406 384.976562 L 308.75 385.546875 C 310.59375 386.535156 314.648438 388.113281 322.125 388.476562 L 325.265625 368.65625 L 355.628906 373.472656 L 351.855469 397.277344 L 347.527344 424.59375 L 340.710938 423.511719 L 335.496094 422.6875 L 317.164062 419.777344 L 318.589844 410.789062 C 314.710938 410.480469 311.148438 409.902344 307.828125 409.046875 C 307.78125 409.035156 307.734375 409.023438 307.6875 409.015625 L 307.6875 528.992188 C 307.6875 536.675781 313.914062 542.902344 321.589844 542.902344 C 329.269531 542.902344 335.496094 536.675781 335.496094 528.992188 L 335.496094 440.917969 L 340.710938 440.917969 L 340.710938 528.992188 C 340.710938 536.675781 346.933594 542.902344 354.613281 542.902344 C 362.292969 542.902344 368.519531 536.675781 368.519531 528.992188 L 368.519531 369.84375 C 373.609375 371.539062 380 372.867188 387.558594 372.878906 Z M 387.558594 372.878906"/></g><path fill="#FFF" d="M 342.121094 289.066406 C 342.925781 289.257812 343.722656 289.484375 344.507812 289.75 C 345.292969 290.015625 346.0625 290.320312 346.816406 290.660156 C 347.570312 291.003906 348.308594 291.382812 349.023438 291.796875 C 349.742188 292.210938 350.4375 292.660156 351.113281 293.140625 C 351.785156 293.625 352.433594 294.140625 353.058594 294.683594 C 353.679688 295.230469 354.277344 295.808594 354.84375 296.414062 C 355.410156 297.015625 355.945312 297.648438 356.449219 298.304688 C 356.953125 298.964844 357.425781 299.644531 357.863281 300.347656 C 358.300781 301.050781 358.703125 301.777344 359.070312 302.519531 C 359.433594 303.261719 359.765625 304.023438 360.058594 304.796875 C 360.347656 305.574219 360.601562 306.363281 360.816406 307.164062 C 361.03125 307.964844 361.207031 308.773438 361.34375 309.589844 C 361.476562 310.40625 361.570312 311.230469 361.625 312.058594 C 361.679688 312.886719 361.695312 313.710938 361.667969 314.542969 C 361.640625 315.371094 361.574219 316.195312 361.464844 317.015625 C 361.359375 317.839844 361.210938 318.652344 361.023438 319.460938 C 360.832031 320.269531 360.605469 321.066406 360.339844 321.851562 C 360.074219 322.636719 359.769531 323.40625 359.429688 324.160156 C 359.085938 324.914062 358.710938 325.652344 358.296875 326.371094 C 357.882812 327.089844 357.433594 327.785156 356.949219 328.457031 C 356.46875 329.132812 355.953125 329.78125 355.40625 330.402344 C 354.859375 331.027344 354.285156 331.621094 353.679688 332.191406 C 353.078125 332.757812 352.445312 333.292969 351.789062 333.796875 C 351.132812 334.300781 350.449219 334.773438 349.746094 335.210938 C 349.042969 335.648438 348.320312 336.050781 347.578125 336.417969 C 346.835938 336.785156 346.074219 337.113281 345.300781 337.40625 C 344.523438 337.699219 343.738281 337.953125 342.9375 338.167969 C 342.136719 338.382812 341.328125 338.558594 340.511719 338.691406 C 339.691406 338.828125 338.871094 338.921875 338.042969 338.976562 C 337.21875 339.03125 336.390625 339.046875 335.5625 339.019531 C 334.734375 338.992188 333.910156 338.925781 333.085938 338.816406 C 332.265625 338.707031 331.449219 338.558594 330.644531 338.371094 C 329.835938 338.183594 329.042969 337.957031 328.257812 337.691406 C 327.472656 337.425781 326.703125 337.121094 325.949219 336.777344 C 325.191406 336.4375 324.457031 336.058594 323.738281 335.644531 C 323.019531 335.230469 322.324219 334.78125 321.652344 334.300781 C 320.976562 333.816406 320.328125 333.300781 319.707031 332.753906 C 319.082031 332.207031 318.488281 331.632812 317.921875 331.027344 C 317.355469 330.421875 316.820312 329.792969 316.316406 329.132812 C 315.8125 328.476562 315.339844 327.796875 314.902344 327.09375 C 314.464844 326.386719 314.0625 325.664062 313.695312 324.921875 C 313.328125 324.179688 313 323.417969 312.707031 322.644531 C 312.414062 321.867188 312.160156 321.078125 311.945312 320.277344 C 311.730469 319.476562 311.558594 318.667969 311.421875 317.851562 C 311.285156 317.03125 311.191406 316.210938 311.136719 315.382812 C 311.082031 314.554688 311.070312 313.726562 311.097656 312.898438 C 311.125 312.070312 311.191406 311.246094 311.296875 310.421875 C 311.40625 309.601562 311.554688 308.785156 311.742188 307.980469 C 311.929688 307.171875 312.15625 306.375 312.421875 305.589844 C 312.691406 304.804688 312.992188 304.035156 313.335938 303.28125 C 313.675781 302.523438 314.054688 301.789062 314.46875 301.070312 C 314.882812 300.351562 315.332031 299.65625 315.8125 298.984375 C 316.296875 298.308594 316.808594 297.660156 317.355469 297.035156 C 317.902344 296.414062 318.476562 295.816406 319.082031 295.25 C 319.6875 294.683594 320.316406 294.148438 320.976562 293.644531 C 321.632812 293.136719 322.3125 292.667969 323.015625 292.230469 C 323.71875 291.792969 324.441406 291.390625 325.1875 291.023438 C 325.929688 290.65625 326.6875 290.324219 327.464844 290.035156 C 328.238281 289.742188 329.027344 289.488281 329.828125 289.273438 C 330.628906 289.058594 331.4375 288.882812 332.253906 288.746094 C 333.070312 288.613281 333.894531 288.519531 334.71875 288.464844 C 335.546875 288.410156 336.375 288.394531 337.203125 288.421875 C 338.03125 288.449219 338.855469 288.515625 339.675781 288.625 C 340.5 288.730469 341.3125 288.878906 342.121094 289.066406 Z M 342.121094 289.066406"/></svg>